<?xml version="1.0" encoding="UTF-8"?>
<svg id="Laag_1" data-name="Laag 1" xmlns="http://www.w3.org/2000/svg" version="1.1" viewBox="0 0 1080 1080">
  <defs>
    <style>
      .cls-1 {
        fill: none;
        stroke: #fff;
        stroke-opacity: .5;
        stroke-width: 1.5px;
      }

      .cls-2 {
        fill-rule: evenodd;
      }

      .cls-2, .cls-3 {
        fill: #fff;
        stroke-width: 0px;
      }
    </style>
  </defs>
  <path class="cls-1" d="M1020.2,38.9v1003.3"/>
  <path class="cls-1" d="M58.2,38.9v1003.3"/>
  <path class="cls-1" d="M1041.8,1025.7H38.5"/>
  <path class="cls-1" d="M484.9,62H38.5"/>
  <path class="cls-1" d="M1041.8,62h-447.9"/>
  <g>
    <path class="cls-2" d="M544.2,111.9c.7,0,1.3,0,1.9.1h0c1.6,0,2.9-.1,4.2-.2,1.5,0,1.9-.5,1.9-1.9,0-2.2,0-4.3,0-6.5,0-1,0-2,0-3.1,0-2.1,0-4.1,0-6.2l.2-16.2c0-.8-.2-1.7-.8-2.3-.6-.6-1.2-1.2-1.8-1.6-.8-.5-1.2-1.4-1.2-2.3,0-2.6,0-5.1.1-7.7,0-.2,0-.4,0-.6,0-.4,0-.9,0-1.3,0-.9,0-1.9,0-2.8,0-.1-.2-.3-.4-.3-1.4,0-2.8,0-4.2,0-.2,0-.3.2-.4.3-.1.8-.2,1.6-.2,2.4,0,.4,0,.8,0,1.2,0,.4,0,.7,0,1.1,0,.9,0,1.7,0,2.6,0,1.5,0,2.9,0,4.4.1,1.4-.6,2.7-1.8,3.3-1.4.8-2.3,2.2-2.3,3.8,0,3.7,0,7.4-.1,11.1,0,3.7,0,7.4-.1,11.2,0,.7,0,1.4,0,2.1,0,1.4,0,2.8,0,4.2,0,.2,0,.4,0,.7,0,1,0,2.1,0,3.1,0,.9.5,1.2,1.4,1.3,1.2,0,2.3.2,3.4.2h0ZM528.2,70.5h.7c0,0,0,0,0,0,0,1.1,0,1.1-.9,1.4,0,0,0,0,0,0-.9.3-1.8.6-2.7,1-.7.3-1.1,1-1.2,1.7-.3,1.4.1,2.8,1.2,3.8.2.1.3.3.5.4,0,0,.1.1.2.1-.1,1-.3,1.8-.4,2.6l-.7.6c0,0,.1.1.2.2.1.1.3.3.4.4.1.1.2.3.3.5.1.5.3.9.4,1.4.5,2.1.2,4.3-.8,6.1-.5.9-.8,1.8-1,2.8-.4,2.1-.4,4.2,1.4,5.9.1.1.2.3.3.4-1.6.6-2,1.4-1.4,2.8-.3.6-.5,1.2-.6,1.8.1.6.3,1.1.6,1.7-.4.4-.6,1-.5,1.5,0,.7,0,1.3,0,2,0,.3,0,.6,0,.8,0,1.1.2,1.4,1.3,1.4,2.6,0,5.2,0,7.8,0h0c.4,0,.7,0,1.1-.2h0c.4,0,.7-.5.6-.9,0-1,0-1.9,0-2.9.2-.7,0-1.5-.7-2,1.1-1.2,1.1-1.9.1-2.9.1-.7.1-1.4,0-2-.2-.4-.5-.7-.9-1-.2-.1-.3-.3-.5-.4.2-.2.4-.5.6-.7.4-.6.7-1.4.9-2.1.4-2,0-4.1-1-5.9-1.5-2.4-1.4-4.9-.7-7.5.1-.3.3-.6.6-.8.4-.3.4-.6,0-.8-.1,0-.2,0-.3-.1,0-.4-.1-.7-.2-1.1,0-.5-.2-1-.3-1.5,0,0,0,0,.1-.1.2-.1.3-.3.5-.4,2.2-2.1,1.5-5-1.3-6.1-.5-.2-1.1-.3-1.7-.5-.3,0-.5-.1-.8-.2v-1.1h.8v-.9h-2.2v.8h0Z"/>
    <path class="cls-3" d="M635.4,141.3c-.7-.9-1.9-1.6-3.6-2.1l-4.2-1.4c-1.1-.3-1.9-.7-2.3-1.2-.5-.5-.7-1.2-.7-2s.4-1.8,1.2-2.5c.8-.6,1.9-1,3.2-1s3,.5,4.1,1.5,1.9,2.6,2.5,4.7h.6l-.4-5.6c-.8-.7-1.8-1.2-3.1-1.6-1.2-.4-2.5-.6-3.8-.6-2.3,0-4.1.5-5.3,1.6s-1.8,2.4-1.8,3.9.4,2.5,1.1,3.3c.8.9,1.9,1.5,3.4,2l4,1.3c1.2.4,2.1.9,2.6,1.5.5.6.8,1.4.8,2.3,0,1.3-.4,2.3-1.2,3-.8.7-2,1-3.5,1s-3.6-.7-4.8-2.1c-1.2-1.4-2-3.4-2.3-6.1h-.6v6.4c.7.9,1.7,1.7,2.9,2.3,1.3.6,2.9,1,4.7,1s3.9-.4,5.4-1.3c1.5-.9,2.2-2.4,2.2-4.8s-.4-2.7-1.1-3.6h0Z"/>
    <path class="cls-3" d="M617,147.6c-1,1-2.5,1.5-4.3,1.5s-3.8-.8-5-2.5c-1.2-1.7-1.8-4-1.8-7.1,0-2.6.6-4.6,1.7-6.2,1.1-1.5,2.7-2.3,4.5-2.3s2.4.4,3.1,1.2c.7.8,1.1,1.8,1.1,3.1s0,1.4-.2,2.1l3.5.4c0-.5.1-1,.1-1.5,0-2-.7-3.6-2-4.9-1.3-1.3-3.1-1.9-5.5-1.9s-5.2.9-6.9,2.7c-1.7,1.8-2.6,4.5-2.6,7.9s.8,6.1,2.5,8c1.6,1.8,4,2.7,6.9,2.7s4.2-.7,5.4-2.1c1.2-1.4,2.1-3,2.5-4.8l-.6-.2c-.4,1.4-1.2,2.7-2.3,3.7Z"/>
    <path class="cls-3" d="M599.8,147.3v-17.3h-5.6v.6c.7,0,1.4.2,1.9.6.5.4.7,1.1.7,2.1v13.9c0,1-.2,1.7-.7,2.1-.5.4-1.1.6-1.9.6v.6h8.2v-.6c-.7,0-1.4-.2-1.9-.6-.5-.4-.7-1.1-.7-2.1h0Z"/>
    <path class="cls-3" d="M601.1,123.3l-2.8-2.8-2.8,2.8,2.8,2.8,2.8-2.8Z"/>
    <path class="cls-3" d="M580.4,131c-1.4-.9-3.1-1.4-5-1.4s-3.7.5-5,1.4c-1.4.9-2.4,2.2-3.1,3.8-.7,1.6-1.1,3.4-1.1,5.5,0,3.1.8,5.7,2.4,7.7,1.6,2,3.9,3,6.9,3s3.7-.5,5-1.4c1.4-.9,2.4-2.2,3.1-3.8.7-1.6,1.1-3.4,1.1-5.5s-.4-3.9-1.1-5.5c-.7-1.6-1.8-2.9-3.1-3.8h0ZM579.9,146.9c-1,1.7-2.5,2.5-4.5,2.5s-3.5-.8-4.5-2.5c-1-1.7-1.4-3.9-1.4-6.7s.5-4.9,1.4-6.6c1-1.7,2.5-2.6,4.5-2.6s3.5.9,4.5,2.6c1,1.7,1.5,3.9,1.5,6.6s-.5,5-1.5,6.7Z"/>
    <path class="cls-3" d="M563.5,147.3v-10.6c0-2.3-.5-4-1.5-5.2-1-1.2-2.4-1.8-4.4-1.8s-3.3.6-4.5,1.8c-1.1,1.2-1.9,2.5-2.1,4.1h-.2v-13.9h-5.6v.6c.7,0,1.4.2,1.9.6.5.4.7,1.1.7,2.1v22.4c0,1-.2,1.7-.7,2.1-.5.4-1,.6-1.7.6-.7,0-1.2-.2-1.7-.6-.5-.4-.7-1.1-.7-2.1v-7.9c0-1.8-.2-3.4-.5-4.8-.3-1.4-1-2.6-2.2-3.6-1.1-1-2.8-1.5-5-1.5s-4.4.6-5.7,1.7c-1.2,1.1-1.9,2.5-1.9,4.1s.1,1.2.3,1.8l3.2-.3v-.2c-.2-.1-.4-.3-.5-.7-.1-.3-.2-.7-.2-1.2,0-1,.4-1.9,1.1-2.6.8-.7,1.9-1.1,3.4-1.1s3.2.6,4,1.9c.7,1.2,1.1,2.9,1.1,5s0,.7,0,1.1l-12.4,1.2c-.2,1.2-.4,2.5-.4,3.6,0,2.5.5,4.3,1.5,5.4,1,1.1,2.4,1.7,4.2,1.7s3.5-.6,4.6-1.9c1.1-1.3,1.9-2.9,2.3-4.7h.2v6.3h13.2v-.6c-.7,0-1.4-.2-1.9-.6-.5-.4-.7-1.1-.7-2.1v-4.9c0-3.9.5-6.7,1.6-8.5,1.1-1.8,2.5-2.7,4.3-2.7s2.4.5,2.9,1.5c.6.9.9,2.4.9,4.5v10.1c0,1-.2,1.7-.7,2.1-.5.4-1.1.6-1.9.6v.6h8.2v-.6c-.7,0-1.4-.2-1.9-.6-.5-.4-.7-1.1-.7-2.1h0ZM539.5,143.2c-.4,1.7-1,3.1-1.9,4.1-.9,1.1-2.1,1.6-3.5,1.6s-2.3-.4-2.9-1.3c-.6-.9-.9-2.1-.9-3.7s0-1.9.3-2.7l9.4-1.5c0,1.2-.3,2.3-.5,3.4h0Z"/>
    <path class="cls-3" d="M505.4,134.8c-.7-1.6-1.8-2.9-3.1-3.8-1.4-.9-3.1-1.4-5-1.4s-3.7.5-5,1.4c-1.4.9-2.4,2.2-3.1,3.8-.7,1.6-1.1,3.4-1.1,5.5,0,3.1.8,5.7,2.4,7.7,1.6,2,3.9,3,6.9,3s3.7-.5,5-1.4c1.4-.9,2.4-2.2,3.1-3.8.7-1.6,1.1-3.4,1.1-5.5s-.4-3.9-1.1-5.5ZM501.7,146.9c-1,1.7-2.5,2.5-4.5,2.5s-3.5-.8-4.5-2.5c-1-1.7-1.4-3.9-1.4-6.7s.5-4.9,1.4-6.6c1-1.7,2.5-2.6,4.5-2.6s3.5.9,4.5,2.6c1,1.7,1.5,3.9,1.5,6.6s-.5,5-1.5,6.7Z"/>
    <path class="cls-3" d="M482.5,131c-1.4-.9-3.1-1.4-5-1.4s-3.7.5-5,1.4c-1.4.9-2.4,2.2-3.1,3.8-.7,1.6-1.1,3.4-1.1,5.5,0,3.1.8,5.7,2.4,7.7,1.6,2,3.9,3,6.9,3s3.7-.5,5-1.4c1.4-.9,2.4-2.2,3.1-3.8.7-1.6,1.1-3.4,1.1-5.5s-.4-3.9-1.1-5.5c-.7-1.6-1.8-2.9-3.1-3.8h0ZM481.9,146.9c-1,1.7-2.5,2.5-4.5,2.5s-3.5-.8-4.5-2.5c-1-1.7-1.4-3.9-1.4-6.7s.5-4.9,1.4-6.6c1-1.7,2.5-2.6,4.5-2.6s3.5.9,4.5,2.6c1,1.7,1.5,3.9,1.5,6.6s-.5,5-1.5,6.7Z"/>
    <path class="cls-3" d="M463.5,146.6c-1.5,1.3-3.5,2-6,2s-4-.5-5.6-1.5c-1.6-1-2.8-2.4-3.7-4.3-.9-1.9-1.3-4.2-1.3-7,0-4.4.9-7.7,2.7-9.9,1.8-2.2,4.1-3.3,7-3.3s3.6.6,4.8,1.8c1.2,1.2,1.8,2.7,1.8,4.7s-.2,2.4-.6,3.7l4.4.5v-.9c0-3.3-.8-6-2.5-8.2-1.7-2.2-4.4-3.3-8.1-3.3s-4.9.6-6.8,1.9c-1.9,1.2-3.4,2.9-4.5,5.2-1,2.2-1.6,4.8-1.6,7.7,0,4.7,1.1,8.4,3.4,11.1,2.3,2.6,5.4,4,9.5,4s6.2-.9,7.7-2.6c1.6-1.8,2.6-3.9,3.1-6.4h-.8c-.4,1.8-1.4,3.5-2.9,4.8h0Z"/>
    <path class="cls-3" d="M523.4,147.8l-5.2-8.1-2.7-.3,5.7-6.5c1.3-1.5,2.9-2.2,5-2.2v-.6h-9.9v.6h.2c.9,0,1.7,0,2.2.1.6,0,.9.3,1.1.5.2.3,0,.7-.5,1.2l-7.5,8.7v-19.7h-5.6v.6c.7,0,1.4.2,1.9.6.5.4.7,1.1.7,2.1v22.4c0,1-.2,1.7-.7,2.1-.5.4-1.1.6-1.9.6v.6h8.2v-.6c-.7,0-1.4-.2-1.9-.6-.5-.4-.7-1.1-.7-2.1v-3.7l3.1-3.6,7,10.6h5.7v-.6c-.8,0-1.5-.2-2.3-.5-.8-.3-1.4-.9-2-1.7Z"/>
    <path class="cls-3" d="M590.8,147.3v-25.7h-5.6v.6c.8,0,1.4.2,1.9.6.5.4.7,1.1.7,2.1v22.4c0,1-.2,1.7-.7,2.1-.5.4-1.1.6-1.9.6v.6h8.2v-.6c-.7,0-1.4-.2-1.9-.6-.5-.4-.7-1.1-.7-2.1Z"/>
    <path class="cls-3" d="M553.6,168v3.4l-2.8-3.4h-.5v4.5h.6v-3.3l2.8,3.3h.5v-4.5h-.6Z"/>
    <path class="cls-3" d="M545.4,172.5h3.2v-.6h-2.6v-1.3h2.3v-.6h-2.3v-1.4h2.6v-.6h-3.2v4.5Z"/>
    <path class="cls-3" d="M543.8,168h-.8l-2.4,2.5v-2.5h-.6v4.5h.6v-1.1l.8-.9,1.7,2h.8l-2.1-2.5,1.9-2Z"/>
    <path class="cls-3" d="M535.9,168l-2,4.5h.7l.5-1.1h2.3l.5,1.1h.7l-2-4.5h-.6,0ZM535.3,170.8l.9-2,.9,2h-1.8Z"/>
    <path class="cls-3" d="M530.2,170.9l-1.8-2.9h-.5v4.5h.6v-3.1s1.4,2.3,1.4,2.3h.4l1.4-2.3v3.1h.6v-4.5h-.5l-1.8,2.9Z"/>
    <path class="cls-3" d="M524.5,168.5c.7,0,1,.3,1.1.8h.6c0-.5-.3-.8-.6-1-.3-.2-.7-.3-1.2-.3s-.9.1-1.2.4c-.3.2-.5.6-.5,1,0,.7.4,1.1,1.3,1.2h.8c.5.2.8.5.8.8s-.4.7-1,.7-1.2-.4-1.3-1h-.6c0,1,.8,1.5,1.9,1.5s.9-.1,1.2-.4c.3-.3.5-.6.5-1,0-.7-.4-1-1.3-1.2h-.6c-.6-.2-.8-.5-.8-.8s.4-.7,1-.7h0Z"/>
    <path class="cls-3" d="M547.7,163.7h-2.6v-1.3h2.3v-.6h-2.3v-1.4h2.6v-.6h-3.2v4.5h3.2v-.6Z"/>
    <path class="cls-3" d="M542.3,164.3h.8l-1.4-1.6c.7-.2,1.1-.7,1.1-1.4s-.2-.8-.5-1.1c-.3-.3-.7-.4-1.2-.4h-1.8v4.5h.6v-1.5h1l1.3,1.5h0ZM540,160.4h1.1c.3,0,.6,0,.8.2.2.2.3.4.3.6,0,.5-.5.9-1.1.9h-1.1v-1.8h0Z"/>
    <path class="cls-3" d="M535.6,164.4c.6,0,1.1-.2,1.4-.6.4-.4.5-.9.5-1.5v-2.5h-.6v2.5c0,.4-.1.8-.4,1-.2.3-.6.4-1,.4s-.7-.1-1-.4c-.2-.3-.4-.6-.4-1v-2.5h-.6v2.5c0,.6.2,1.1.5,1.5.4.4.8.6,1.4.6h0Z"/>
    <path class="cls-3" d="M529.4,162.9h.9c.6,0,1-.1,1.3-.4.3-.3.5-.7.5-1.1s-.2-.8-.5-1.1c-.3-.3-.8-.4-1.3-.4h-1.6v4.5h.6v-1.4h0ZM529.4,160.4h1c.7,0,1.2.4,1.2.9s-.5,1-1.2,1h-1v-1.9Z"/>
    <path class="cls-3" d="M538.4,184.8c18.2,0,33.1-13.4,35.2-30.8-.2,0-.4,0-.5,0-2,17.1-16.8,30.3-34.6,30.3s-33.4-14-34.8-31.7c-.2,0-.3.2-.5.3,1.5,17.9,16.7,32,35.3,32Z"/>
    <path class="cls-3" d="M575.3,154.1c-2.2,18.1-17.9,32.2-36.9,32.2s-35.1-14.4-37-32.8c-.2,0-.4.1-.5.2,2,18.6,18.1,33.2,37.6,33.2s35.3-14.3,37.5-32.7c-.2,0-.3,0-.5,0h0Z"/>
    <path class="cls-3" d="M538.4,38.9c-20.9,0-37.8,16.7-37.8,37.2v50.7c.2,0,.4,0,.6.2v-11.5h1.8v12.2c.2,0,.4.2.5.3v-51.9c0-19,15.6-34.4,34.9-34.4s34.9,15.4,34.9,34.4v50.5c.2,0,.4,0,.5,0v-11h1.8v10.9c.2,0,.4,0,.5,0v-50.3c0-20.5-16.9-37.2-37.8-37.2ZM502.9,114.9h-1.8v-20h1.8v20ZM538.4,41.1c-19.6,0-35.4,15.6-35.4,34.9v18.4h-1.8v-18.4c0-20.2,16.7-36.7,37.2-36.7s37.2,16.4,37.2,36.7v18.4h-1.8v-18.4c0-19.3-15.9-34.9-35.4-34.9ZM573.8,114.9v-20h1.8v20h-1.8Z"/>
  </g>
</svg>