<?xml version="1.0" encoding="utf-8"?>
<!-- Generator: Adobe Illustrator 28.3.0, SVG Export Plug-In . SVG Version: 6.00 Build 0)  -->
<svg version="1.1" id="Laag_1" xmlns="http://www.w3.org/2000/svg" xmlns:xlink="http://www.w3.org/1999/xlink" x="0px" y="0px"
	 viewBox="0 0 1080 1080" style="enable-background:new 0 0 1080 1080;" xml:space="preserve">
<style type="text/css">
	.st0{fill:#EE6350;}
	.st1{fill:#F7DEBF;}
	.st2{fill-rule:evenodd;clip-rule:evenodd;fill:#232323;}
	.st3{fill:#232323;}
	.st4{fill-rule:evenodd;clip-rule:evenodd;fill:#FFFFFF;}
	.st5{fill:#FFFFFF;}
</style>
<rect y="0" class="st0" width="1080" height="1080"/>
<g>
	<path class="st4" d="M568.2,514.4c2.5,0.2,4.9,0.3,7.1,0.5v0c6.3-0.3,11.2-0.5,16.1-0.8c5.6-0.3,7.2-1.9,7.3-7.4
		c0.2-8.4,0.3-16.8,0.4-25.2c0.1-4,0.1-7.9,0.2-11.9c0.1-8,0.2-16,0.3-24l0.7-63.1c0.2-3.2-0.9-6.4-3-8.9c-2.1-2.3-4.5-4.5-7.1-6.4
		c-2.9-2-4.7-5.3-4.6-8.8c0.2-10,0.3-19.9,0.4-29.9l0,0c0-0.8,0.1-1.6,0.1-2.5c0.1-1.7,0.1-3.4,0.1-5.1c0-3.6,0-7.3-0.1-10.9
		c0-0.4-0.9-1.2-1.4-1.2c-5.3-0.2-10.7-0.2-16-0.2c-0.7,0.1-1.3,0.6-1.6,1.3c-0.4,3.1-0.7,6.1-0.8,9.2c0,1.6,0.1,3.1,0.2,4.7
		c0.1,1.5,0.2,2.9,0.2,4.4c0,3.3-0.1,6.7-0.1,10c-0.1,5.7-0.2,11.3-0.1,17c0.5,5.3-2.2,10.4-6.9,12.9c-5.4,3-8.7,8.6-8.7,14.8
		c-0.2,14.3-0.3,28.7-0.5,43.1c-0.2,14.5-0.3,29-0.5,43.5c0,2.7-0.1,5.4-0.1,8.1c-0.1,5.4-0.2,10.9-0.2,16.3c0,0.9,0,1.7,0,2.6
		c0,4.1-0.1,8.1,0.2,12.2c0.2,3.5,1.9,4.7,5.2,5C559.5,513.8,564,514.1,568.2,514.4z M506.8,353.1l2.9,0.2l0.1-0.1
		c0.3,4.4,0.3,4.4-3.4,5.6c-0.1,0-0.2,0.1-0.4,0.1c-3.5,1.2-7,2.5-10.3,4.1c-2.6,1.2-4.3,3.7-4.5,6.6c-1.2,5.4,0.5,11,4.6,14.7
		c0.6,0.5,1.2,1,1.8,1.4c0.3,0.2,0.6,0.4,0.7,0.6c-0.5,4-1,7.1-1.4,9.9l-2.5,2.2c0.2,0.2,0.4,0.4,0.6,0.6c0.5,0.5,1.1,1,1.5,1.6
		c0.5,0.5,1,1.2,1.3,1.9c0.5,1.8,1,3.7,1.4,5.5c2,8.1,0.9,16.6-3.1,23.9c-1.8,3.4-3.1,7-3.7,10.7c-1.5,8.3-1.5,16.5,5.3,23
		c0.4,0.5,0.8,1.1,1.1,1.7c-6.3,2.2-7.7,5.6-5.2,10.9c-1.2,2.2-2,4.5-2.4,6.9c0.4,2.3,1.2,4.4,2.4,6.4c-1.6,1.5-2.4,3.7-2,5.9
		c0.2,2.5,0.2,5.1,0.3,7.6c0,1.1,0,2.2,0.1,3.3c0.1,4.5,0.8,5.4,5.2,5.5c9.9,0.1,19.9,0,29.8-0.1h0.1c1.4-0.1,2.8-0.3,4.1-0.7h0.2
		c1.5-0.3,2.5-1.8,2.2-3.3c-0.2-3.7-0.2-7.4,0-11.2c0.7-2.9-0.3-5.9-2.6-7.8c4.1-4.6,4-7.5,0.5-11.2c0.4-2.6,0.5-5.3,0-7.9
		c-0.6-1.4-2-2.5-3.4-3.7c-0.7-0.5-1.3-1.1-2-1.7c0.9-0.9,1.6-1.8,2.3-2.9c1.6-2.5,2.8-5.3,3.6-8.2c1.6-7.9,0.1-16.1-4-23.1
		c-5.6-9.4-5.4-19.1-2.6-29.1c0.5-1.2,1.3-2.3,2.3-3c1.5-1.2,1.6-2.2-0.1-3.2c-0.4-0.2-0.8-0.4-1.3-0.5c-0.2-1.4-0.5-2.8-0.7-4.2
		c-0.3-1.9-0.7-3.9-1-6c0.1-0.1,0.3-0.3,0.5-0.4c0.6-0.5,1.3-1.1,2-1.7c8.4-8.3,5.9-19.6-5.2-23.6c-2.1-0.7-4.2-1.3-6.4-1.9
		c-1-0.3-2-0.6-3.1-0.9v-4.4l3-0.6v-2.9h-8.5V353.1z"/>
	<g>
		<path class="st5" d="M917.6,628.5c-2.8-3.5-7.4-6.3-13.7-8.3l-16.1-5.3c-4.1-1.3-7.1-2.9-8.9-4.8c-1.8-1.9-2.7-4.5-2.7-7.8
			c0-3.9,1.5-7.1,4.6-9.6c3.2-2.5,7.3-3.7,12.4-3.7c6.4,0,11.6,2,15.6,5.9c4,3.9,7.2,10.1,9.6,18.5h2.1l-1.4-21.6
			c-3.1-2.6-7-4.7-11.9-6.2c-4.7-1.5-9.6-2.3-14.5-2.3c-9,0-15.8,2.1-20.4,6.2c-4.6,4.1-6.9,9.2-6.9,15.1c0,5.3,1.4,9.6,4.3,13
			c3,3.3,7.3,5.9,13,7.6l15.3,5c4.7,1.5,8.1,3.5,10.1,5.9c2,2.4,3,5.3,3,8.9c0,5.1-1.6,9-4.8,11.7c-3.2,2.6-7.6,3.9-13.3,3.9
			c-7.6,0-13.7-2.7-18.3-8.2c-4.6-5.6-7.5-13.4-8.7-23.6h-2.1v24.8c2.6,3.4,6.3,6.4,11.2,9c5,2.5,10.9,3.7,17.9,3.7
			c8.2,0,15-1.7,20.6-5c5.6-3.3,8.3-9.5,8.3-18.6C921.8,636.7,920.4,632.1,917.6,628.5z"/>
		<path class="st5" d="M847.2,653.2c-4,4-9.5,6-16.5,6c-8,0-14.5-3.2-19.3-9.6c-4.7-6.5-7-15.7-6.9-27.7c0-10.1,2.1-18,6.4-24
			c4.4-6,10.2-9,17.4-9c5.1,0,9,1.5,11.9,4.6c2.8,3,4.3,7,4.3,12.2c0,2.6-0.3,5.3-0.9,8l13.5,1.4c0.4-2,0.5-3.9,0.5-5.7
			c0-7.8-2.6-14.1-7.8-19c-5.1-5-12.1-7.5-20.9-7.5c-11,0-19.9,3.5-26.6,10.6c-6.6,7.1-9.9,17.3-9.9,30.7c0,13.5,3.1,23.8,9.4,31
			c6.3,7.1,15.1,10.6,26.6,10.6c9.1,0,16-2.7,20.6-8.2c4.7-5.6,7.9-11.8,9.4-18.6l-2.3-0.7C854.3,644.2,851.4,649,847.2,653.2z"/>
		<path class="st5" d="M781.2,651.9v-67.2h-9.9h-11.7v2.5c2.8,0,5.2,0.8,7.1,2.3c1.9,1.4,2.8,4.1,2.8,8.2v54.3
			c0,3.9-0.9,6.6-2.8,8.2c-1.9,1.5-4.3,2.3-7.1,2.3v2.5h11.7h8.2h11.5v-2.5c-2.8,0-5.2-0.8-7.1-2.3
			C782.1,658.6,781.2,655.8,781.2,651.9z"/>
		<polygon class="st5" points="786,558.4 775.2,547.6 764.3,558.4 775.2,569.4 		"/>
		<path class="st5" d="M707,588.6c-5.3-3.7-11.8-5.5-19.3-5.5s-14,1.8-19.3,5.5c-5.3,3.5-9.3,8.5-12.1,14.7
			c-2.7,6.3-4.1,13.4-4.1,21.3c0,12.2,3.1,22.2,9.2,30c6.2,7.7,14.9,11.5,26.3,11.5c7.6,0,14-1.8,19.3-5.3
			c5.3-3.7,9.3-8.6,12.1-14.9c2.7-6.3,4.1-13.4,4.1-21.3s-1.4-15-4.1-21.3C716.4,597.1,712.3,592.2,707,588.6z M704.9,650.5
			c-3.7,6.5-9.4,9.8-17.2,9.8c-7.8,0-13.6-3.3-17.4-9.8c-3.7-6.6-5.5-15.3-5.5-25.9s1.8-19.2,5.5-25.7c3.8-6.6,9.6-9.9,17.4-9.9
			c7.8,0,13.5,3.3,17.2,9.9c3.8,6.5,5.7,15.1,5.7,25.7S708.7,643.9,704.9,650.5z"/>
		<path class="st5" d="M642.1,651.9v-41.3c0-8.9-1.9-15.7-5.7-20.4c-3.7-4.7-9.3-7.1-17-7.1c-7,0-12.7,2.3-17.2,6.9
			c-4.4,4.5-7.1,9.9-8.2,16.1h-0.7v-54.3h-9.9h-11.5v2.5c2.8,0,5.2,0.8,7.1,2.3c1.9,1.4,2.8,4.1,2.8,8.2v87.1c0,3.9-0.9,6.6-2.8,8.2
			c-1.7,1.4-3.9,2.2-6.4,2.3c-2.5-0.1-4.7-0.9-6.4-2.3c-1.9-1.5-2.8-4.3-2.8-8.2v-30.7c0-7.1-0.7-13.3-2-18.6
			c-1.2-5.4-4-10.1-8.3-13.8c-4.3-3.8-10.7-5.7-19.3-5.7c-9.7,0-17,2.2-21.8,6.6c-4.7,4.4-7.1,9.6-7.1,15.8c0,2.5,0.4,4.9,1.2,7.1
			l12.2-1.2v-0.7c-0.8-0.5-1.5-1.4-2-2.7c-0.5-1.3-0.7-2.8-0.7-4.6c0-3.9,1.4-7.3,4.3-10.1c3-2.8,7.3-4.3,13-4.3
			c7.3,0,12.4,2.4,15.3,7.3c2.8,4.8,4.3,11.3,4.3,19.3c0,1.4,0,2.8-0.1,4.1l-47.6,4.6c-0.9,4.8-1.4,9.6-1.4,14.2
			c0,9.6,2,16.6,5.9,21.1c3.9,4.4,9.3,6.6,16.1,6.6c7.7,0,13.6-2.5,17.7-7.5c4.1-5,7.1-11.1,8.9-18.5h0.7v24.7h9.2h10.1h1.4h10.1
			h8.3h11.5v-2.5c-2.8,0-5.2-0.8-7.1-2.3c-1.9-1.5-2.8-4.3-2.8-8.2v-19c0-15,2.1-26,6.2-33c4.3-7.1,9.7-10.6,16.3-10.6
			c5.3,0,9,1.9,11.2,5.7c2.2,3.7,3.4,9.5,3.4,17.6v39.4c0,3.9-0.9,6.6-2.8,8.2c-1.9,1.5-4.3,2.3-7.1,2.3v2.5H632h8.5H652v-2.5
			c-2.8,0-5.2-0.8-7.1-2.3C643,658.6,642.1,655.8,642.1,651.9z M550,636.2c-1.4,6.5-3.9,11.9-7.5,16.1c-3.4,4.3-7.9,6.4-13.3,6.4
			c-5,0-8.6-1.7-11-5c-2.2-3.3-3.4-8.1-3.4-14.4c0-4,0.4-7.5,1.1-10.5L552,623C551.6,627.6,551,631.9,550,636.2z"/>
		<path class="st5" d="M419.5,603.3c-2.7-6.3-6.7-11.2-12.1-14.7c-5.3-3.7-11.8-5.5-19.3-5.5c-7.6,0-14,1.8-19.3,5.5
			c-5.3,3.5-9.3,8.5-12.1,14.7c-2.7,6.3-4.1,13.4-4.1,21.3c0,12.2,3.1,22.2,9.2,30c6.2,7.7,14.9,11.5,26.3,11.5
			c7.6,0,14-1.8,19.3-5.3c5.3-3.7,9.3-8.6,12.1-14.9c2.7-6.3,4.1-13.4,4.1-21.3S422.2,609.6,419.5,603.3z M405.3,650.5
			c-3.7,6.5-9.4,9.8-17.2,9.8c-7.8,0-13.6-3.3-17.4-9.8c-3.7-6.6-5.5-15.3-5.5-25.9s1.8-19.2,5.5-25.7c3.8-6.6,9.6-9.9,17.4-9.9
			c7.8,0,13.5,3.3,17.2,9.9c3.8,6.5,5.7,15.1,5.7,25.7S409.1,643.9,405.3,650.5z"/>
		<path class="st5" d="M331.6,588.6c-5.3-3.7-11.8-5.5-19.3-5.5c-7.6,0-14,1.8-19.3,5.5c-5.3,3.5-9.3,8.5-12.1,14.7
			c-2.7,6.3-4.1,13.4-4.1,21.3c0,12.2,3.1,22.2,9.2,30c6.1,7.7,14.9,11.5,26.3,11.5c7.6,0,14-1.8,19.3-5.3
			c5.3-3.7,9.3-8.6,12.1-14.9c2.7-6.3,4.1-13.4,4.1-21.3s-1.4-15-4.1-21.3C340.9,597.1,336.9,592.2,331.6,588.6z M329.4,650.5
			c-3.7,6.5-9.4,9.8-17.2,9.8c-7.8,0-13.6-3.3-17.4-9.8c-3.7-6.6-5.5-15.3-5.5-25.9s1.8-19.2,5.5-25.7c3.8-6.6,9.6-9.9,17.4-9.9
			c7.8,0,13.5,3.3,17.2,9.9c3.8,6.5,5.7,15.1,5.7,25.7S333.2,643.9,329.4,650.5z"/>
		<path class="st5" d="M258.8,649.5c-5.8,5.2-13.5,7.8-23.1,7.8c-8.2,0-15.3-1.9-21.5-5.7c-6-3.8-10.8-9.4-14.2-16.9
			c-3.4-7.5-5.1-16.5-5.1-27.1c0-17.3,3.4-30.1,10.3-38.5c6.9-8.5,15.8-12.8,27-12.8c7.7,0,13.8,2.3,18.5,6.9
			c4.6,4.5,6.9,10.6,6.9,18.5c0,4.6-0.8,9.5-2.3,14.5l17,2v-3.5c0-12.7-3.2-23.2-9.6-31.8c-6.4-8.5-16.8-12.8-31.2-12.8
			c-9.9,0-18.6,2.4-26.1,7.3c-7.3,4.7-13.1,11.5-17.2,20.2c-4,8.6-6,18.6-6,30c0,18.5,4.3,32.8,13,43.1
			c8.6,10.3,20.8,15.4,36.5,15.4c13.7,0,23.6-3.4,29.6-10.3c6-6.9,10-15.2,11.9-25l-3.2-0.5C268.5,637.9,264.7,644.3,258.8,649.5z"
			/>
		<path class="st5" d="M488.5,653.9l-20-31.4l-10.4-1.2l21.9-25.4c4.8-5.8,11.3-8.7,19.3-8.7v-2.5h-14.5h-23.2v2.5h0.9
			c3.5,0,6.3,0.2,8.3,0.5c2.1,0.4,3.5,1.1,4.1,2.1c0.6,1.1,0,2.7-1.8,4.8l-28.9,33.8v-76.5h-9.9h-11.5v2.5c2.8,0,5.2,0.8,7.1,2.3
			c1.9,1.4,2.8,4.1,2.8,8.2v87.1c0,3.9-0.9,6.6-2.8,8.2c-1.9,1.5-4.3,2.3-7.1,2.3v2.5h11.5h8.3h11.5v-2.5c-2.8,0-5.2-0.8-7.1-2.3
			c-1.9-1.5-2.8-4.3-2.8-8.2v-14.4l12-13.9l26.9,41.3h10.8H505v-2.5c-3,0-5.9-0.6-8.9-1.8C493.2,659.5,490.7,657.2,488.5,653.9z"/>
		<path class="st5" d="M746.7,651.9V551.9h-9.9h-11.7v2.5c3,0,5.4,0.8,7.3,2.3c1.9,1.4,2.8,4.1,2.8,8.2v87.1c0,3.9-0.9,6.6-2.8,8.2
			c-1.9,1.5-4.3,2.3-7.3,2.3v2.5h11.7h8.3h11.5v-2.5c-2.8,0-5.2-0.8-7.1-2.3C747.7,658.6,746.7,655.8,746.7,651.9z"/>
	</g>
	<g>
		<polygon class="st5" points="604,732.7 604,745.8 593.4,732.7 591.5,732.7 591.5,750.1 593.9,750.1 593.9,737.2 604.5,750.1 
			606.5,750.1 606.5,732.7 		"/>
		<polygon class="st5" points="572.7,750.1 585,750.1 585,747.8 575.1,747.8 575.1,742.6 584,742.6 584,740.4 575.1,740.4 
			575.1,735 585,735 585,732.7 572.7,732.7 		"/>
		<polygon class="st5" points="566.5,732.7 563.6,732.7 554.4,742.5 554.4,732.7 552,732.7 552,750.1 554.4,750.1 554.4,745.8 
			557.6,742.4 564.3,750.1 567.4,750.1 559.3,740.6 		"/>
		<path class="st5" d="M536.3,732.6l-7.7,17.4h2.6l1.9-4.5h8.7l1.9,4.5h2.6l-7.7-17.4H536.3z M534.1,743.4l3.4-7.8l3.4,7.8H534.1z"
			/>
		<polygon class="st5" points="514.3,744 507.5,732.7 505.7,732.7 505.7,750.1 508.1,750.1 508.1,738.1 513.5,747 515.1,747 
			520.5,738.1 520.5,750.1 522.9,750.1 522.9,732.7 521.1,732.7 		"/>
		<path class="st5" d="M492.5,734.5c2.5,0,4,1.1,4.3,3.2h2.4c-0.2-1.8-1-3.1-2.3-4c-1.3-0.9-2.8-1.3-4.6-1.3c-1.9,0-3.4,0.5-4.6,1.4
			c-1.1,0.9-1.7,2.2-1.7,3.7c0,2.5,1.6,4.1,4.8,4.7l2.9,0.6c1.9,0.4,2.9,1.2,2.9,2.6c0,1.7-1.5,2.9-4,2.9c-2.9,0-4.7-1.4-5-3.8h-2.4
			c0.3,3.8,3.1,6,7.3,6c2,0,3.6-0.5,4.8-1.5c1.2-1,1.8-2.3,1.8-3.9c0-2.5-1.7-4-5-4.6l-2.4-0.5c-2.1-0.4-3.2-1.3-3.2-2.7
			C488.6,735.6,490.1,734.5,492.5,734.5z"/>
		<polygon class="st5" points="581.6,715.9 571.7,715.9 571.7,710.7 580.6,710.7 580.6,708.4 571.7,708.4 571.7,703 581.6,703 
			581.6,700.8 569.3,700.8 569.3,718.1 581.6,718.1 		"/>
		<path class="st5" d="M560.8,718.1h3l-5.3-6.3c2.7-0.7,4.4-2.7,4.4-5.4c0-1.7-0.6-3.1-1.9-4.1c-1.2-1-2.8-1.6-4.8-1.6h-6.8v17.3
			h2.4v-6h3.9L560.8,718.1z M551.9,703h4.3c1.2,0,2.3,0.3,3.1,0.9c0.8,0.6,1.2,1.4,1.2,2.5c0,2.1-1.8,3.4-4.3,3.4h-4.3V703z"/>
		<path class="st5" d="M535,718.5c2.3,0,4.1-0.7,5.5-2.2c1.4-1.5,2.1-3.4,2.1-5.7v-9.8h-2.4v9.8c0,1.7-0.5,3-1.4,4.1
			c-0.9,1-2.2,1.6-3.7,1.6s-2.8-0.5-3.7-1.6c-0.9-1-1.4-2.4-1.4-4.1v-9.8h-2.4v9.8c0,2.4,0.7,4.3,2.1,5.7
			C530.9,717.8,532.7,718.5,535,718.5z"/>
		<path class="st5" d="M511.3,712.8h3.5c2.1,0,3.8-0.6,5.1-1.7c1.3-1.1,1.9-2.6,1.9-4.4c0-1.8-0.6-3.2-1.9-4.3
			c-1.2-1.1-2.9-1.6-4.9-1.6h-6.3v17.3h2.4V712.8z M511.3,703h3.8c2.7,0,4.4,1.5,4.4,3.6c0,2.3-1.8,3.9-4.4,3.9h-3.8V703z"/>
	</g>
	<g>
		<path class="st1" d="M545.7,798c69.6,0,126.9-52.3,134.9-119.7c-0.7-0.1-1.4-0.2-2.1-0.3c-7.8,66.4-64.3,117.9-132.8,117.9
			c-70.4,0-128.1-54.4-133.3-123.4c-0.7,0.4-1.3,0.8-2,1.1C416.2,743.2,474.6,798,545.7,798z"/>
		<path class="st1" d="M687.3,678.7c-8.6,70.6-68.7,125.2-141.6,125.2c-73.7,0-134.3-55.9-141.9-127.6c-0.7,0.2-1.4,0.4-2.1,0.6
			c7.8,72.6,69.3,129.1,143.9,129.1c74.1,0,135.1-55.6,143.7-127.4c-0.6,0-1.2,0-1.8,0C687.6,678.7,687.5,678.7,687.3,678.7z"/>
		<path class="st1" d="M545.7,230C465.8,230,401,294.8,401,374.8v197.4c0.7,0.2,1.4,0.4,2.1,0.6v-44.6h6.9v47.4
			c0.7,0.4,1.4,0.8,2.1,1.2V374.5c0-73.8,59.9-133.7,133.7-133.7c73.8,0,133.7,59.9,133.7,133.7v196.7c0.7-0.1,1.4-0.2,2.1-0.3
			v-42.8h6.8v42.4c0.7,0,1.4,0,2.1,0.1V374.8C690.5,294.8,625.7,230,545.7,230z M410,526h-6.9v-77.7h6.9V526z M545.7,238.7
			c-75,0-135.8,60.8-135.8,135.8v71.7h-6.9v-71.5c0-78.8,63.9-142.6,142.6-142.6S688.4,296,688.4,374.8v71.5h-6.8v-71.7
			C681.5,299.5,620.7,238.7,545.7,238.7z M681.5,526v-77.7h6.8V526H681.5z"/>
	</g>
</g>
</svg>
