<?xml version="1.0" encoding="UTF-8"?>
<svg id="Laag_1" data-name="Laag 1" xmlns="http://www.w3.org/2000/svg" version="1.1" viewBox="0 0 1080 1080">
  <defs>
    <style>
      .cls-1 {
        fill-rule: evenodd;
      }

      .cls-1, .cls-2 {
        fill: #f7debf;
        stroke-width: 0px;
      }
    </style>
  </defs>
  <path class="cls-1" d="M568.2,514.4c2.5.2,4.9.3,7.1.5h0c6.3-.3,11.2-.6,16.1-.8,5.6-.3,7.2-1.9,7.3-7.4.2-8.4.3-16.8.4-25.2,0-4,.1-7.9.2-11.9.1-8,.2-16,.3-24l.7-63.1c.2-3.2-.9-6.4-3-8.9-2.1-2.3-4.5-4.5-7.1-6.4-2.9-2-4.7-5.3-4.6-8.8.2-10,.3-19.9.4-29.9h0c0-.8,0-1.7,0-2.5,0-1.7.1-3.4.1-5.1,0-3.6,0-7.3-.1-10.9,0-.4-.9-1.2-1.4-1.2-5.3-.2-10.7-.2-16-.2-.7.1-1.3.6-1.6,1.3-.4,3.1-.7,6.1-.8,9.2,0,1.6.1,3.1.2,4.7.1,1.5.2,2.9.2,4.4,0,3.3,0,6.7-.1,10-.1,5.7-.2,11.3,0,17,.5,5.3-2.2,10.4-6.9,12.9-5.4,3-8.7,8.6-8.7,14.8-.2,14.3-.3,28.7-.5,43.1-.2,14.5-.3,29-.5,43.5,0,2.7,0,5.4-.1,8.1,0,5.4-.2,10.9-.2,16.3,0,.9,0,1.7,0,2.6,0,4.1,0,8.1.2,12.2.2,3.5,1.9,4.7,5.2,5,4.5.3,8.9.6,13.1.9ZM506.8,353.1l2.9.2h0c.3,4.3.3,4.3-3.4,5.5-.1,0-.2,0-.4.1-3.5,1.2-7,2.5-10.3,4.1-2.6,1.2-4.3,3.7-4.5,6.6-1.2,5.4.5,11,4.6,14.7.6.5,1.2,1,1.8,1.4.3.2.6.4.7.6-.5,4-1,7.1-1.4,9.9l-2.5,2.2c.2.2.4.4.6.6.5.5,1.1,1,1.5,1.6.5.5,1,1.2,1.3,1.9.5,1.8,1,3.7,1.4,5.5,2,8.1.9,16.6-3.1,23.9-1.8,3.4-3.1,7-3.7,10.7-1.5,8.3-1.5,16.5,5.3,23,.4.5.8,1.1,1.1,1.7-6.3,2.2-7.7,5.6-5.2,10.9-1.2,2.2-2,4.5-2.4,6.9.4,2.3,1.2,4.4,2.4,6.4-1.6,1.5-2.4,3.7-2,5.9.2,2.5.2,5.1.3,7.6,0,1.1,0,2.2,0,3.3.1,4.5.8,5.4,5.2,5.5,9.9.1,19.9,0,29.8-.1h0c1.4-.1,2.8-.3,4.1-.7h.2c1.5-.3,2.5-1.8,2.2-3.3-.2-3.7-.2-7.4,0-11.2.7-2.9-.3-5.9-2.6-7.8,4.1-4.6,4-7.5.5-11.2.4-2.6.5-5.3,0-7.9-.6-1.4-2-2.5-3.4-3.7-.7-.5-1.3-1.1-2-1.7.9-.9,1.6-1.8,2.3-2.9,1.6-2.5,2.8-5.3,3.6-8.2,1.6-7.9.1-16.1-4-23.1-5.6-9.4-5.4-19.1-2.6-29.1.5-1.2,1.3-2.3,2.3-3,1.5-1.2,1.6-2.2,0-3.2-.4-.2-.8-.4-1.3-.5-.2-1.4-.5-2.8-.7-4.2-.3-1.9-.7-3.9-1-6,.1-.1.3-.3.5-.4.6-.5,1.3-1.1,2-1.7,8.4-8.3,5.9-19.6-5.2-23.6-2.1-.7-4.2-1.3-6.4-1.9-1-.3-2-.6-3.1-.9v-4.4l3-.6v-2.9h-8.5v3.2Z"/>
  <g>
    <path class="cls-2" d="M917.6,628.5c-2.8-3.5-7.4-6.3-13.7-8.3l-16.1-5.3c-4.1-1.3-7.1-2.9-8.9-4.8-1.8-1.9-2.7-4.5-2.7-7.8s1.5-7.1,4.6-9.6c3.2-2.5,7.3-3.7,12.4-3.7s11.6,2,15.6,5.9c4,3.9,7.2,10.1,9.6,18.5h2.1l-1.4-21.6c-3.1-2.6-7-4.7-11.9-6.2-4.7-1.5-9.6-2.3-14.5-2.3-9,0-15.8,2.1-20.4,6.2-4.6,4.1-6.9,9.2-6.9,15.1s1.4,9.6,4.3,13c3,3.3,7.3,5.9,13,7.6l15.3,5c4.7,1.5,8.1,3.5,10.1,5.9,2,2.4,3,5.3,3,8.9,0,5.1-1.6,9-4.8,11.7-3.2,2.6-7.6,3.9-13.3,3.9s-13.7-2.7-18.3-8.2c-4.6-5.6-7.5-13.4-8.7-23.6h-2.1v24.8c2.6,3.4,6.3,6.4,11.2,9,5,2.5,10.9,3.7,17.9,3.7s15-1.7,20.6-5c5.6-3.3,8.3-9.5,8.3-18.6s-1.4-10.5-4.3-14Z"/>
    <path class="cls-2" d="M847.2,653.2c-4,4-9.5,6-16.5,6s-14.5-3.2-19.3-9.6c-4.7-6.5-7-15.7-6.9-27.7,0-10.1,2.1-18,6.4-24,4.4-6,10.2-9,17.4-9s9,1.5,11.9,4.6c2.8,3,4.3,7,4.3,12.2s-.3,5.3-.9,8l13.5,1.4c.4-2,.5-3.9.5-5.7,0-7.8-2.6-14.1-7.8-19-5.1-5-12.1-7.5-20.9-7.5s-19.9,3.5-26.6,10.6c-6.6,7.1-9.9,17.3-9.9,30.7s3.1,23.8,9.4,31c6.3,7.1,15.1,10.6,26.6,10.6s16-2.7,20.6-8.2c4.7-5.6,7.9-11.8,9.4-18.6l-2.3-.7c-1.7,5.6-4.6,10.4-8.7,14.5Z"/>
    <path class="cls-2" d="M781.2,651.9v-67.2h-21.6v2.5c2.8,0,5.2.8,7.1,2.3,1.9,1.4,2.8,4.1,2.8,8.2v54.3c0,3.9-.9,6.6-2.8,8.2-1.9,1.5-4.3,2.3-7.1,2.3v2.5h31.4v-2.5c-2.8,0-5.2-.8-7.1-2.3-1.8-1.5-2.7-4.3-2.7-8.2Z"/>
    <polygon class="cls-2" points="786 558.4 775.2 547.6 764.3 558.4 775.2 569.4 786 558.4"/>
    <path class="cls-2" d="M707,588.6c-5.3-3.7-11.8-5.5-19.3-5.5s-14,1.8-19.3,5.5c-5.3,3.5-9.3,8.5-12.1,14.7-2.7,6.3-4.1,13.4-4.1,21.3,0,12.2,3.1,22.2,9.2,30,6.2,7.7,14.9,11.5,26.3,11.5s14-1.8,19.3-5.3c5.3-3.7,9.3-8.6,12.1-14.9,2.7-6.3,4.1-13.4,4.1-21.3s-1.4-15-4.1-21.3c-2.7-6.3-6.7-11.2-12.1-14.7ZM704.9,650.5c-3.7,6.5-9.4,9.8-17.2,9.8s-13.6-3.3-17.4-9.8c-3.7-6.6-5.5-15.3-5.5-25.9s1.8-19.2,5.5-25.7c3.8-6.6,9.6-9.9,17.4-9.9s13.5,3.3,17.2,9.9c3.8,6.5,5.7,15.1,5.7,25.7s-1.9,19.3-5.7,25.9Z"/>
    <path class="cls-2" d="M642.1,651.9v-41.3c0-8.9-1.9-15.7-5.7-20.4-3.7-4.7-9.3-7.1-17-7.1s-12.7,2.3-17.2,6.9c-4.4,4.5-7.1,9.9-8.2,16.1h-.7v-54.3h-21.5v2.5c2.8,0,5.2.8,7.1,2.3,1.9,1.4,2.8,4.1,2.8,8.2v87.1c0,3.9-.9,6.6-2.8,8.2-1.7,1.4-3.9,2.2-6.4,2.3-2.5-.1-4.7-.9-6.4-2.3-1.9-1.5-2.8-4.3-2.8-8.2v-30.7c0-7.1-.7-13.3-2-18.6-1.2-5.4-4-10.1-8.3-13.8-4.3-3.8-10.7-5.7-19.3-5.7s-17,2.2-21.8,6.6c-4.7,4.4-7.1,9.6-7.1,15.8s.4,4.9,1.2,7.1l12.2-1.2v-.7c-.8-.5-1.5-1.4-2-2.7-.5-1.3-.7-2.8-.7-4.6,0-3.9,1.4-7.3,4.3-10.1,3-2.8,7.3-4.3,13-4.3s12.4,2.4,15.3,7.3c2.8,4.8,4.3,11.3,4.3,19.3s0,2.8,0,4.1l-47.6,4.6c-.9,4.8-1.4,9.6-1.4,14.2,0,9.6,2,16.6,5.9,21.1,3.9,4.4,9.3,6.6,16.1,6.6s13.6-2.5,17.7-7.5c4.1-5,7.1-11.1,8.9-18.5h.7v24.7h50.8v-2.5c-2.8,0-5.2-.8-7.1-2.3-1.9-1.5-2.8-4.3-2.8-8.2v-19c0-15,2.1-26,6.2-33,4.3-7.1,9.7-10.6,16.3-10.6s9,1.9,11.2,5.7c2.2,3.7,3.4,9.5,3.4,17.6v39.4c0,3.9-.9,6.6-2.8,8.2-1.9,1.5-4.3,2.3-7.1,2.3v2.5h31.6v-2.5c-2.8,0-5.2-.8-7.1-2.3-1.9-1.5-2.8-4.3-2.8-8.2ZM550,636.2c-1.4,6.5-3.9,11.9-7.5,16.1-3.4,4.3-7.9,6.4-13.3,6.4s-8.6-1.7-11-5c-2.2-3.3-3.4-8.1-3.4-14.4s.4-7.5,1.1-10.5l36.1-5.9c-.4,4.5-1,8.9-2,13.1Z"/>
    <path class="cls-2" d="M419.5,603.3c-2.7-6.3-6.7-11.2-12.1-14.7-5.3-3.7-11.8-5.5-19.3-5.5s-14,1.8-19.3,5.5c-5.3,3.5-9.3,8.5-12.1,14.7-2.7,6.3-4.1,13.4-4.1,21.3,0,12.2,3.1,22.2,9.2,30,6.2,7.7,14.9,11.5,26.3,11.5s14-1.8,19.3-5.3c5.3-3.7,9.3-8.6,12.1-14.9,2.7-6.3,4.1-13.4,4.1-21.3s-1.4-15-4.1-21.3ZM405.3,650.5c-3.7,6.5-9.4,9.8-17.2,9.8s-13.6-3.3-17.4-9.8c-3.7-6.6-5.5-15.3-5.5-25.9s1.8-19.2,5.5-25.7c3.8-6.6,9.6-9.9,17.4-9.9s13.5,3.3,17.2,9.9c3.8,6.5,5.7,15.1,5.7,25.7s-1.9,19.3-5.7,25.9Z"/>
    <path class="cls-2" d="M331.6,588.6c-5.3-3.7-11.8-5.5-19.3-5.5s-14,1.8-19.3,5.5c-5.3,3.5-9.3,8.5-12.1,14.7-2.7,6.3-4.1,13.4-4.1,21.3,0,12.2,3.1,22.2,9.2,30,6.1,7.7,14.9,11.5,26.3,11.5s14-1.8,19.3-5.3c5.3-3.7,9.3-8.6,12.1-14.9,2.7-6.3,4.1-13.4,4.1-21.3s-1.4-15-4.1-21.3c-2.7-6.3-6.7-11.2-12.1-14.7ZM329.4,650.5c-3.7,6.5-9.4,9.8-17.2,9.8s-13.6-3.3-17.4-9.8c-3.7-6.6-5.5-15.3-5.5-25.9s1.8-19.2,5.5-25.7c3.8-6.6,9.6-9.9,17.4-9.9s13.5,3.3,17.2,9.9c3.8,6.5,5.7,15.1,5.7,25.7s-1.9,19.3-5.7,25.9Z"/>
    <path class="cls-2" d="M258.8,649.5c-5.8,5.2-13.5,7.8-23.1,7.8s-15.3-1.9-21.5-5.7c-6-3.8-10.8-9.4-14.2-16.9-3.4-7.5-5.1-16.5-5.1-27.1,0-17.3,3.4-30.1,10.3-38.5,6.9-8.5,15.8-12.8,27-12.8s13.8,2.3,18.5,6.9c4.6,4.5,6.9,10.6,6.9,18.5s-.8,9.5-2.3,14.5l17,2v-3.5c0-12.7-3.2-23.2-9.6-31.8-6.4-8.5-16.8-12.8-31.2-12.8s-18.6,2.4-26.1,7.3c-7.3,4.7-13.1,11.5-17.2,20.2-4,8.6-6,18.6-6,30,0,18.5,4.3,32.8,13,43.1,8.6,10.3,20.8,15.4,36.5,15.4s23.6-3.4,29.6-10.3c6-6.9,10-15.2,11.9-25l-3.2-.5c-1.5,7.6-5.3,14-11.2,19.2Z"/>
    <path class="cls-2" d="M488.5,653.9l-20-31.4-10.4-1.2,21.9-25.4c4.8-5.8,11.3-8.7,19.3-8.7v-2.5h-37.8v2.5h.9c3.5,0,6.3.2,8.3.5,2.1.4,3.5,1.1,4.1,2.1.6,1.1,0,2.7-1.8,4.8l-28.9,33.8v-76.5h-21.5v2.5c2.8,0,5.2.8,7.1,2.3,1.9,1.4,2.8,4.1,2.8,8.2v87.1c0,3.9-.9,6.6-2.8,8.2-1.9,1.5-4.3,2.3-7.1,2.3v2.5h31.4v-2.5c-2.8,0-5.2-.8-7.1-2.3-1.9-1.5-2.8-4.3-2.8-8.2v-14.4l12-13.9,26.9,41.3h22v-2.5c-3,0-5.9-.6-8.9-1.8-3-1.2-5.5-3.4-7.6-6.7Z"/>
    <path class="cls-2" d="M746.7,651.9v-100.1h-21.6v2.5c3,0,5.4.8,7.3,2.3,1.9,1.4,2.8,4.1,2.8,8.2v87.1c0,3.9-.9,6.6-2.8,8.2-1.9,1.5-4.3,2.3-7.3,2.3v2.5h31.6v-2.5c-2.8,0-5.2-.8-7.1-2.3-1.9-1.5-2.8-4.3-2.8-8.2Z"/>
  </g>
  <g>
    <polygon class="cls-2" points="604 732.7 604 745.8 593.4 732.7 591.5 732.7 591.5 750.1 593.9 750.1 593.9 737.2 604.5 750.1 606.5 750.1 606.5 732.7 604 732.7"/>
    <polygon class="cls-2" points="572.7 750.1 585 750.1 585 747.8 575.1 747.8 575.1 742.6 584 742.6 584 740.4 575.1 740.4 575.1 735 585 735 585 732.7 572.7 732.7 572.7 750.1"/>
    <polygon class="cls-2" points="566.5 732.7 563.6 732.7 554.4 742.5 554.4 732.7 552 732.7 552 750.1 554.4 750.1 554.4 745.8 557.6 742.4 564.3 750.1 567.4 750.1 559.3 740.6 566.5 732.7"/>
    <path class="cls-2" d="M536.3,732.6l-7.7,17.4h2.6l1.9-4.5h8.7l1.9,4.5h2.6l-7.7-17.4h-2.3ZM534.1,743.4l3.4-7.8,3.4,7.8h-6.7Z"/>
    <polygon class="cls-2" points="514.3 744 507.5 732.7 505.7 732.7 505.7 750.1 508.1 750.1 508.1 738.1 513.5 747 515.1 747 520.5 738.1 520.5 750.1 522.9 750.1 522.9 732.7 521.1 732.7 514.3 744"/>
    <path class="cls-2" d="M492.5,734.5c2.5,0,4,1.1,4.3,3.2h2.4c-.2-1.8-1-3.1-2.3-4-1.3-.9-2.8-1.3-4.6-1.3s-3.4.5-4.6,1.4c-1.1.9-1.7,2.2-1.7,3.7,0,2.5,1.6,4.1,4.8,4.7l2.9.6c1.9.4,2.9,1.2,2.9,2.6s-1.5,2.9-4,2.9-4.7-1.4-5-3.8h-2.4c.3,3.8,3.1,6,7.3,6s3.6-.5,4.8-1.5c1.2-1,1.8-2.3,1.8-3.9,0-2.5-1.7-4-5-4.6l-2.4-.5c-2.1-.4-3.2-1.3-3.2-2.7s1.6-2.9,3.9-2.9Z"/>
    <polygon class="cls-2" points="581.6 715.9 571.7 715.9 571.7 710.7 580.6 710.7 580.6 708.4 571.7 708.4 571.7 703 581.6 703 581.6 700.8 569.3 700.8 569.3 718.1 581.6 718.1 581.6 715.9"/>
    <path class="cls-2" d="M560.8,718.1h3l-5.3-6.3c2.7-.7,4.4-2.7,4.4-5.4s-.6-3.1-1.9-4.1c-1.2-1-2.8-1.6-4.8-1.6h-6.8v17.3h2.4v-6h3.9l5.1,6ZM551.9,703h4.3c1.2,0,2.3.3,3.1.9.8.6,1.2,1.4,1.2,2.5,0,2.1-1.8,3.4-4.3,3.4h-4.3v-6.9Z"/>
    <path class="cls-2" d="M535,718.5c2.3,0,4.1-.7,5.5-2.2,1.4-1.5,2.1-3.4,2.1-5.7v-9.8h-2.4v9.8c0,1.7-.5,3-1.4,4.1-.9,1-2.2,1.6-3.7,1.6s-2.8-.5-3.7-1.6c-.9-1-1.4-2.4-1.4-4.1v-9.8h-2.4v9.8c0,2.4.7,4.3,2.1,5.7,1.4,1.5,3.2,2.2,5.5,2.2Z"/>
    <path class="cls-2" d="M511.3,712.8h3.5c2.1,0,3.8-.6,5.1-1.7,1.3-1.1,1.9-2.6,1.9-4.4s-.6-3.2-1.9-4.3c-1.2-1.1-2.9-1.6-4.9-1.6h-6.3v17.3h2.4v-5.4ZM511.3,703h3.8c2.7,0,4.4,1.5,4.4,3.6s-1.8,3.9-4.4,3.9h-3.8v-7.5Z"/>
  </g>
  <g>
    <path class="cls-2" d="M545.7,798c69.6,0,126.9-52.3,134.9-119.7-.7,0-1.4-.2-2.1-.3-7.8,66.4-64.3,117.9-132.8,117.9s-128.1-54.4-133.3-123.4c-.7.4-1.3.8-2,1.1,5.8,69.7,64.2,124.4,135.3,124.4Z"/>
    <path class="cls-2" d="M687.3,678.7c-8.6,70.6-68.7,125.2-141.6,125.2s-134.3-55.9-141.9-127.6c-.7.2-1.4.4-2.1.6,7.8,72.6,69.3,129.1,143.9,129.1s135.1-55.6,143.7-127.4c-.6,0-1.2,0-1.8,0s-.2,0-.3,0Z"/>
    <path class="cls-2" d="M545.7,230c-79.9,0-144.8,64.8-144.8,144.8v197.4c.7.2,1.4.4,2.1.6v-44.6h6.9v47.4c.7.4,1.4.8,2.1,1.2v-202.2c0-73.8,59.9-133.7,133.7-133.7s133.7,59.9,133.7,133.7v196.7c.7-.1,1.4-.2,2.1-.3v-42.8h6.8v42.4c.7,0,1.4,0,2.1,0v-195.9c0-79.9-64.8-144.8-144.8-144.8ZM410,526h-6.9v-77.7h6.9v77.7ZM545.7,238.7c-75,0-135.8,60.8-135.8,135.8v71.7h-6.9v-71.5c0-78.8,63.9-142.6,142.6-142.6s142.6,63.9,142.6,142.6v71.5h-6.8v-71.7c0-75-60.8-135.8-135.8-135.8ZM681.5,526v-77.7h6.8v77.7h-6.8Z"/>
  </g>
</svg>