<?xml version="1.0" encoding="UTF-8"?>
<svg id="Laag_1" data-name="Laag 1" xmlns="http://www.w3.org/2000/svg" version="1.1" viewBox="0 0 550 550">
  <defs>
    <style>
      .cls-1 {
        fill: #ee6350;
      }

      .cls-1, .cls-2 {
        stroke-width: 0px;
      }

      .cls-2 {
        fill: #fff;
        fill-rule: evenodd;
      }
    </style>
  </defs>
  <circle class="cls-1" cx="275" cy="275" r="251"/>
  <path class="cls-2" d="M262.4,114.9l-5.4-9.6-18.2,2.9-2.1,10.8-9.2,1.5,10.1-47.3,10.1-1.6,24.2,41.9-9.5,1.5h0ZM240.5,99.8l3.5-17.8,8.9,15.9-12.4,2h0ZM183.4,142.6l14.2-7.7h0c5.8-3.1,9.6-7.5,11.3-13,1.8-5.5,1-11.3-2.4-17.5-3.3-6.2-7.8-10-13.4-11.6-5.6-1.6-11.3-.8-17.1,2.3l-14.3,7.7,21.6,39.7h0ZM193.4,127.9l-6.2,3.3h0l-13.8-25.4,6.2-3.4c3.4-1.9,6.9-2.3,10.3-1.3,3.4,1,6.3,3.5,8.5,7.6s2.8,7.8,1.7,11.2c-1.1,3.4-3.3,6-6.8,7.9h.1ZM167.7,154.8l-6.1,7-37.8-5.7,24.2,21.1-5.8,6.6-34.1-29.8,7.3-8.2,35,5.5-22.6-19.7,5.8-6.6,34.1,29.8h0ZM119.4,205.4h11c0,.1,3.4-8.8,3.4-8.8h-48.5l-3.6,9.6,36.2,32.2,3.3-8.7-8.3-7.2,6.5-17.2h0ZM106.4,216.9l-13.8-11.9,18.2.2-4.4,11.7ZM105.3,262.3l10.4-3.7h0v-9.5l-45.4,17v10.2l45.2,17.5v-9.3l-10.3-3.8v-18.4h.1ZM97.1,277.7l-17.1-6.3h0l17.2-6.2v12.5h0ZM290.4,109.4c3.6,5.1,8.6,8.2,15,9.4h0c3,.5,5.8.6,8.5,0s5-1.3,6.9-2.5,3.5-2.5,4.9-4.1c1.4-1.5,2.4-3.1,3.2-4.8l-7.7-4c-1.2,2.3-3,4.2-5.4,5.6s-5.4,1.8-8.8,1.1c-3.8-.7-6.8-2.6-9-5.8-2.2-3.1-2.9-7-2-11.5.9-4.7,2.9-8.1,6.2-10.2,3.2-2.1,6.7-2.8,10.3-2.1,3.5.7,6.1,2,7.8,4.1,1.7,2.1,2.6,4.5,2.8,7.1l8.7-1.1c-.3-4.2-1.8-8.1-4.8-11.6-2.9-3.5-7.2-5.8-12.9-6.9-6.2-1.1-11.9,0-17.2,3.5-5.3,3.5-8.5,8.6-9.8,15.5s-.1,12.9,3.5,18l-.2.2ZM373.6,147.7h0l23.5-38.6-7.6-4.6-9.5,15.5-16.9-10.2,9.5-15.5-7.5-4.6-23.5,38.6,7.5,4.6,9.8-16,16.9,10.2-9.8,16,7.6,4.6h0ZM438.3,163.6h0ZM444.7,158.3l-6.4,5.3-9.1-11-28.5,23.5-5.7-6.8,28.5-23.5-9.1-11,6.4-5.3,23.9,28.8h0ZM128.9,417.4l5.3-9.6-12.1-13.8-10.3,4-6.1-7,45.6-16.6,6.7,7.7-22.9,42.6-6.3-7.2h.1ZM130.1,390.9l17-6.5-8.8,15.9-8.2-9.4ZM188.5,447.6l-1.7,10.9h0l8.4,4.6,6.9-47.8-9-5-37.2,31.1,8.2,4.5,8.3-7.2,16.1,8.9ZM178.9,433.1l13.8-11.9-2.8,18-11-6.1ZM263.4,478.5h0l6.8-44.7-8.7-1.3-4.5,29.5-14.1-32.4-10.9-1.7-6.8,44.7,8.7,1.3,4.8-31.7,15.5,34.8,9.2,1.4h0ZM299.3,477.2l15.8-3.3h0c6.5-1.4,11.3-4.4,14.6-9.2,3.3-4.8,4.2-10.6,2.7-17.4-1.4-6.8-4.6-11.8-9.5-14.9s-10.6-4-17-2.6l-15.9,3.3,9.3,44.2h0ZM313.1,466l-6.9,1.4h0l-6-28.3,6.9-1.5c3.8-.8,7.3-.3,10.3,1.7,3,1.9,5,5.2,6,9.7,1,4.6.5,8.3-1.5,11.3s-4.9,4.8-8.8,5.6h0ZM391.7,441.9l-8.6-6.9-15.8,9.5,2.1,10.8-8,4.8-8.5-47.6,8.8-5.3,38.2,29.8-8.2,4.9h0ZM362.3,418.3l3.5,17.8,10.7-6.4-14.2-11.4h0ZM419.7,411c6.2-.7,11.4-3.6,15.5-8.6h0c1.9-2.3,3.3-4.8,4.2-7.3.9-2.6,1.2-5,1.1-7.2-.1-2.3-.6-4.3-1.3-6.2-.7-1.9-1.6-3.6-2.7-5.1l-7.1,4.8c1.5,2.1,2.3,4.6,2.4,7.4,0,2.8-1,5.6-3.2,8.3-2.4,3-5.6,4.7-9.4,5.2-3.8.4-7.5-.8-11.1-3.7-3.7-3-5.7-6.4-6-10.3-.3-3.8.7-7.2,3.1-10,2.2-2.8,4.7-4.4,7.4-4.9,2.7-.5,5.2-.1,7.6,1l3.2-8.1c-3.9-1.8-8-2.3-12.5-1.4s-8.6,3.6-12.2,8c-4,4.9-5.7,10.5-5.2,16.7.5,6.3,3.5,11.6,9,16s11.3,6.3,17.5,5.6l-.3-.2ZM475,321.1l-2.8,8.4-17.8-6-6.3,18.7,17.8,6-2.8,8.3-43-14.4,2.8-8.3,17.3,5.8,6.3-18.7-17.3-5.8,2.8-8.4,43,14.4h0ZM442.7,267.5l-.2-14.3h-8.3l.4,37.5h8.4l-.2-14.4,37-.4v-8.8c-.1,0-37.1.4-37.1.4h0ZM103,346.8c4.5,0,8.1-3.6,8.1-8.1s-3.6-8.1-8.1-8.1-8.1,3.6-8.1,8.1,3.6,8.1,8.1,8.1ZM453.7,212.2c0,4.5-3.6,8.1-8.1,8.1s-8.1-3.6-8.1-8.1,3.6-8.1,8.1-8.1,8.1,3.6,8.1,8.1Z"/>
</svg>