<?xml version="1.0" encoding="UTF-8"?>
<svg id="Laag_1" data-name="Laag 1" xmlns="http://www.w3.org/2000/svg" version="1.1" viewBox="0 0 550 852">
  <defs>
    <style>
      .cls-1 {
        fill: #ee6350;
      }

      .cls-1, .cls-2 {
        stroke-width: 0px;
      }

      .cls-2 {
        fill: #fff;
        fill-rule: evenodd;
      }
    </style>
  </defs>
  <path class="cls-1" d="M275,18.7h0c138.5,0,250.7,112.2,250.7,250.7v313.1c0,138.5-112.2,250.7-250.7,250.7h0c-138.5,0-250.7-112.2-250.7-250.7v-313.1c0-138.5,112.2-250.7,250.7-250.7Z"/>
  <path class="cls-2" d="M493.5,271.7v303.6c0,120.6-97.7,218.3-218.3,218.3s-218.3-97.7-218.3-218.3v-303.6c0-120.6,97.7-218.3,218.3-218.3s218.3,97.7,218.3,218.3h0ZM52.5,271.7c0-123,99.7-222.7,222.7-222.7s222.7,99.7,222.7,222.7v303.6c0,123-99.7,222.7-222.7,222.7s-222.7-99.7-222.7-222.7v-303.6h0ZM175.6,415.9c-8.1,0-15-1.8-20.7-5.5s-10-8.6-12.9-15c-2.9-6.3-4.4-13.5-4.4-21.5v-114.2c0-7.9,1.5-15,4.6-21.4,3.1-6.3,7.4-11.3,13.1-15,5.7-3.7,12.5-5.5,20.4-5.5s11.2,1.1,15.9,3.3,8.6,5.2,12,9c3.3,3.8,5.9,8.2,7.6,13.3,1.8,5,2.6,10.5,2.6,16.3v26.6h-26.7v-26.6c0-4-.8-7.4-2.5-10.2-1.7-2.7-4.5-4.1-8.3-4.1s-6.1,1.4-7.7,4.2c-1.6,2.8-2.4,6.1-2.4,10v114.1c0,3.9.9,7.2,2.6,10,1.7,2.8,4.2,4.2,7.5,4.2s6.8-1.4,8.4-4.1c1.6-2.7,2.5-6.1,2.5-10.1v-26.6h26.7v26.6c0,7.9-1.5,15-4.6,21.4-3.1,6.3-7.5,11.3-13.1,15-5.7,3.7-12.5,5.5-20.3,5.5h0l-.3.3h0ZM229.4,413.8v-193.8h28.5v67.8h1.1l1.3-3.2,22.2-64.6h29.3l-26.2,63.8,29.6,130h-29.3l-19-88.3h-.8l-8.2,19.8v68.5h-28.5ZM151.5,433.9v193.8h66.3v-26.4h-37.8v-167.4h-28.5ZM266.2,630c-8.1,0-15-1.8-20.7-5.5s-10-8.6-12.9-14.9c-2.9-6.3-4.4-13.5-4.4-21.5v-114.1c0-7.9,1.5-15,4.6-21.4,3.1-6.3,7.4-11.3,13.1-15,5.7-3.7,12.5-5.5,20.4-5.5s11.2,1.1,15.9,3.3c4.7,2.2,8.6,5.2,12,9,3.3,3.8,5.9,8.2,7.6,13.3,1.8,5,2.6,10.5,2.6,16.3v26.6h-26.7v-26.6c0-4-.8-7.4-2.5-10.2-1.7-2.7-4.5-4.1-8.3-4.1s-6.1,1.4-7.7,4.2c-1.6,2.8-2.4,6.1-2.4,10v114.1c0,3.9.9,7.2,2.6,10s4.2,4.2,7.5,4.2,6.8-1.4,8.4-4.1c1.6-2.7,2.5-6.1,2.5-10.1v-26.6h26.7v26.6c0,7.9-1.5,15-4.6,21.4-3.1,6.3-7.5,11.3-13.1,15-5.7,3.7-12.5,5.5-20.3,5.5h-.3ZM337.7,626.2c5.2,2.6,11.7,3.9,19.6,3.9h0c7.1,0,13.1-1.2,18-3.7,4.9-2.4,9.1-5.9,12.3-10.3,3.2-4.4,5.5-9.5,7.1-15.5,1.5-6,2.3-12.4,2.3-19.3,0-11-2.5-21-7.6-30.1-5.1-9-11.6-19-19.6-29.8-6.7-9.2-12-17.1-16-24s-6-14-6-21.4.7-10.1,2.1-13.3c1.4-3.1,4-4.7,7.7-4.7s4.3.9,5.8,2.5c1.5,1.7,2.6,3.9,3.4,6.6s1.4,5.7,1.7,9c.3,3.3.5,6.6.5,9.8l28-2.6c0-7.6-.8-14.6-2.2-20.9-1.5-6.3-3.7-11.7-6.9-16.3-3.1-4.6-7.2-8.1-12.3-10.5-5.1-2.4-11.3-3.7-18.6-3.7s-11.1,1.1-15.7,3.4-8.5,5.5-11.7,9.6-5.7,8.8-7.3,14.3c-1.7,5.5-2.5,11.5-2.5,18s1.4,16.2,4.3,23.7c2.8,7.5,6.9,15.2,12,23,5.2,7.8,11.2,16.3,18,25.4,4.1,5.4,7.6,11,10.5,17s4.4,11.7,4.4,17.2-.9,10.2-2.6,14.2c-1.8,3.9-4.8,5.9-9,5.9s-4.6-.9-6.3-2.7c-1.6-1.8-2.9-4.3-3.7-7.5-.9-3.1-1.4-6.6-1.7-10.5-.3-3.9-.5-8-.5-12.2l-28,2.6c0,8.7.6,16.5,1.9,23.5s3.4,12.9,6.4,17.8c3,4.9,7.1,8.7,12.3,11.3v.3h0ZM320.7,413.8v-193.8h28.5v80.1h22.2v-80.1h28.5v193.8h-28.5v-84.4h-22.2v84.4h-28.5Z"/>
</svg>