<?xml version="1.0" encoding="UTF-8"?>
<svg id="Laag_1" data-name="Laag 1" xmlns="http://www.w3.org/2000/svg" xmlns:xlink="http://www.w3.org/1999/xlink" version="1.1" viewBox="0 0 550 550">
  <defs>
    <style>
      .cls-1 {
        clip-path: url(#clippath);
      }

      .cls-2 {
        fill: none;
      }

      .cls-2, .cls-3, .cls-4 {
        stroke-width: 0px;
      }

      .cls-3 {
        fill: #ee6350;
      }

      .cls-4 {
        fill: #fff;
        fill-rule: evenodd;
      }
    </style>
    <clipPath id="clippath">
      <rect class="cls-2" x="62" y="61" width="426" height="428"/>
    </clipPath>
  </defs>
  <circle class="cls-3" cx="275" cy="275" r="251"/>
  <g class="cls-1">
    <path class="cls-4" d="M470.4,272.4l.3,5.2c-3.6-.5-6.5-1.9-8.8-4.3-2.2-2.4-3.5-5.4-3.7-9-.2-4.2,1-7.8,3.6-10.9,2.7-3,6.1-4.7,10.4-4.9,4.2-.3,7.9,1,10.9,3.7s4.6,6.2,4.9,10.4c.2,3.6-.7,6.7-2.7,9.4-2,2.7-4.7,4.4-8.2,5.3l-.3-5.2c4.3-1.4,6.6-4.6,6.3-9.2-.2-2.8-1.2-5.1-3.2-6.9-2-1.8-4.4-2.5-7.4-2.4-2.9.2-5.3,1.3-7.1,3.2-1.8,2-2.6,4.4-2.4,7.2.3,4.5,2.9,7.5,7.4,8.3h0ZM453.3,228.7h0ZM453.3,228.7l-1.3-4.9,27.6-7.5,1.3,4.9-27.6,7.5ZM445.9,204.8l-8.7-18.2,25.8-12.5,2.2,4.6-21.7,10.5,6.5,13.7-4.1,2h0ZM443,149.4c.4-4.1-.7-7.8-3.3-11h0c-2.6-3.2-6-5-10.1-5.4s-7.7.7-10.9,3.4c-3.2,2.7-5,6-5.4,10.1s.8,7.8,3.4,11,6,5,10,5.4c4.1.4,7.8-.7,10.9-3.4,3.2-2.6,4.9-6,5.3-10.1h.1ZM434.4,155.5c-2.2,1.8-4.6,2.6-7.4,2.4-2.7-.2-5-1.4-6.7-3.5s-2.5-4.5-2.2-7.3c.3-2.7,1.6-5,3.8-6.8,2.2-1.8,4.6-2.6,7.3-2.4,2.7.2,5,1.3,6.7,3.5,1.8,2.2,2.5,4.6,2.2,7.3s-1.6,5-3.8,6.8h.1ZM392.3,131.5l-4.1-2.9,6.8-9.6-11.6-8.4-6.8,9.6-4.1-3,16.7-23.4,4.1,3-7.2,10,11.6,8.4,7.2-10,4.1,2.9-16.7,23.4ZM333.1,98.8l4.8-5h0l12.7,5,.2,6.9,5,2-1.2-31.6-4.4-1.7-22.2,22.4s5.1,2,5.1,2ZM350.1,81.1l-8.7,9.1,9.1,3.6-.4-12.7ZM291.8,83.5l-.8,6.7-5-.6,3.5-28.6,5,.6-1.8,15,15.5-13.3,6,.8-13,11.3,10.7,17.5-6.3-.8-8.3-13.3-5.5,4.8h0ZM257.7,65.1c-3.3-2.5-6.9-3.5-11-3h0c-4.1.5-7.4,2.5-9.9,5.8s-3.5,7-2.9,11.1c.5,4.1,2.4,7.4,5.7,10,3.3,2.5,7,3.5,11.1,2.9,4.1-.5,7.4-2.4,9.9-5.7,2.5-3.3,3.5-7,2.9-11.1-.5-4.1-2.5-7.4-5.7-9.9h-.1ZM258.3,75.7c.4,2.8-.2,5.4-1.8,7.6h0c-1.6,2.2-3.8,3.5-6.6,3.9-2.7.4-5.1-.3-7.3-2-2.1-1.7-3.4-4-3.7-6.9-.4-2.8.2-5.3,1.9-7.6,1.6-2.2,3.8-3.5,6.5-3.9,2.8-.4,5.2.3,7.3,2.1,2.1,1.7,3.4,4,3.7,6.8ZM191.5,77.2c3.8-1.6,7.6-1.6,11.4,0,3.8,1.6,6.5,4.2,8.1,8s1.6,7.7,0,11.5c-1.5,3.8-4.2,6.5-8,8.1s-7.6,1.7-11.4,0c-3.8-1.6-6.5-4.3-8.1-8.1-1.6-3.8-1.7-7.6-.1-11.4,1.5-3.8,4.2-6.6,8-8.2h.1ZM206.6,95c1-2.6.9-5.2-.2-7.8-1.1-2.6-2.9-4.5-5.4-5.6s-5-1.1-7.6,0c-2.5,1.1-4.3,2.9-5.2,5.5-1,2.6-.9,5.2.2,7.8,1.1,2.6,2.9,4.5,5.4,5.6s5,1.1,7.6,0,4.3-2.9,5.3-5.5h-.1ZM161.2,114.8h0c1.8,4.1.9,8-2.6,10.8-2.2,1.8-4.6,2.5-7.2,2.1-2.6-.3-4.9-1.7-6.7-4s-2.6-4.8-2.3-7.4c.3-2.7,1.5-4.8,3.7-6.6,3.5-2.8,7.5-2.7,11.1,0l4.1-3.2c-2.7-2.4-5.7-3.6-9-3.7s-6.3.9-9.2,3.2c-3.3,2.6-5.2,5.9-5.7,10-.5,4,.6,7.7,3.2,11.1,2.6,3.4,6,5.3,10,5.7s7.7-.6,11-3.2c2.8-2.2,4.6-5,5.2-8.2.7-3.3.2-6.5-1.5-9.7l-4.1,3.2h0ZM474.6,319.3l-.9,5h0c6.9.6,10.1-4.8,11.1-9.8.6-3.2.2-5.9-1-8.2-1.3-2.2-3.2-3.6-5.8-4.1-4.4-.8-7.5,1.4-9.5,6.5l-1.8,4.5c-1.1,2.7-2.4,3.9-4.3,3.5-2.4-.5-3.4-2.8-2.8-6.3.8-4.2,3.4-6.6,6.8-6.5l.9-5c-3.1-.3-5.7.4-7.8,2.3-2.2,1.9-3.5,4.5-4.2,8-.6,3.3-.3,6.1.9,8.4,1.2,2.3,3.2,3.7,5.8,4.2,4.4.8,7.2-1.6,9.3-7l1.4-3.5c1.2-3,2.5-4.3,4.6-3.9,2.5.5,3.7,2.9,3.1,6.4-.7,3.6-2.6,5.4-5.8,5.3v.2ZM440,372c.7-1.3,1.9-2.1,3.4-2.5,3-.8,5.8.9,6.6,3.9.4,1.5.2,2.9-.5,4.2-.7,1.3-1.9,2.1-3.4,2.5-3,.8-5.8-.8-6.6-3.9-.4-1.5-.2-2.9.5-4.2h0ZM388,435.7l4-3.3h0c-1.9-4.1-1.1-8,2.4-10.9,2.2-1.8,4.6-2.6,7.2-2.3,2.6.3,4.9,1.6,6.8,3.8,1.9,2.3,2.7,4.7,2.5,7.4-.2,2.7-1.4,4.9-3.6,6.7-3.5,2.9-7.4,2.9-11.1.3l-4,3.3c2.8,2.4,5.8,3.5,9.1,3.5s6.3-1.1,9.1-3.4c3.2-2.7,5-6,5.5-10.1.4-4-.8-7.7-3.5-11s-6.1-5.1-10.1-5.5c-4-.3-7.7.8-10.9,3.5-2.8,2.3-4.5,5.1-5,8.3-.6,3.3,0,6.5,1.7,9.7h-.1ZM362.6,470.6c-3.8,1.7-7.6,1.8-11.4.3s-6.6-4.1-8.3-7.8c-1.7-3.8-1.8-7.6-.3-11.5s4.1-6.6,7.8-8.3c3.8-1.7,7.6-1.9,11.4-.4s6.6,4.1,8.3,7.9c1.7,3.8,1.8,7.6.4,11.4-1.5,3.9-4.1,6.7-7.8,8.4h-.1ZM347.1,453.2c-.9,2.6-.7,5.2.4,7.8,1.2,2.6,3,4.4,5.5,5.4s5.1,1,7.6-.1,4.2-3,5.1-5.6.8-5.2-.4-7.8c-1.2-2.6-3-4.4-5.6-5.5-2.5-1-5.1-1-7.6.2-2.5,1.1-4.2,3-5.2,5.6h.2ZM296.7,484.2c3.3,2.4,7,3.4,11.1,2.7h0c4.1-.6,7.3-2.6,9.8-6,2.4-3.3,3.3-7,2.7-11.1-.6-4.1-2.6-7.4-5.9-9.8s-7-3.3-11.1-2.7c-4.1.6-7.3,2.6-9.7,5.9-2.4,3.3-3.3,7.1-2.7,11.2.6,4.1,2.6,7.3,5.9,9.8h0ZM295.8,473.6c-.4-2.8,0-5.4,1.7-7.6h0c1.6-2.3,3.7-3.6,6.5-4,2.7-.4,5.1.2,7.3,1.9,2.2,1.7,3.5,4,3.9,6.8s-.1,5.3-1.7,7.6c-1.6,2.3-3.7,3.6-6.4,4-2.7.4-5.2-.2-7.4-1.9-2.2-1.7-3.5-3.9-3.9-6.7h0ZM262.2,466.5l.7-6.7,5,.5-2.9,28.7-5-.5,1.5-15-15.2,13.6-6-.6,12.7-11.6-11.1-17.2,6.3.6,8.6,13.1,5.4-4.9ZM220.6,452.2l-4.7,5.1h0l-12.9-4.7-.4-6.9-5-1.8,1.9,31.5,4.4,1.6,21.7-22.9-5.1-1.9h.1ZM203.9,470.3l8.5-9.3-9.2-3.4.7,12.7h0ZM160.6,420.8l4.1,2.9-6.6,9.7,11.8,8.1,6.6-9.7,4.2,2.9-16.2,23.7-4.2-2.9,6.9-10.2-11.8-8.1-6.9,10.2-4.1-2.9,16.2-23.7ZM109.6,404.1c-.3,4.1.9,7.7,3.6,10.9h0c2.7,3.2,6.1,4.9,10.2,5.2s7.7-.9,10.8-3.6,4.9-6.1,5.2-10.3c.3-4.1-.9-7.8-3.6-10.9-2.7-3.1-6.1-4.9-10.2-5.2-4.1-.3-7.7.9-10.9,3.6-3.1,2.7-4.8,6.1-5.1,10.3ZM118,397.8c2.1-1.9,4.6-2.8,7.3-2.6,2.7.1,5,1.3,6.8,3.4s2.6,4.5,2.3,7.2c-.2,2.7-1.5,5.1-3.6,6.9-2.1,1.9-4.6,2.7-7.3,2.6-2.7-.1-5-1.2-6.8-3.3-1.8-2.1-2.6-4.5-2.3-7.3.2-2.7,1.5-5,3.6-6.9h0ZM105.4,348.7l9.1,18.1-25.5,13-2.3-4.5,21.5-11-6.8-13.5,4.1-2.1h0ZM98.9,329.9l-1.4-4.9-27.5,8.1,1.4,4.9,27.5-8.1ZM79.4,281.7l-.4-5.2c3.6.4,6.6,1.8,8.9,4.1,2.3,2.3,3.6,5.3,3.9,8.9.3,4.2-.8,7.8-3.4,11-2.6,3.1-6,4.8-10.3,5.2-4.2.3-7.9-.8-11-3.4-3.1-2.7-4.8-6.1-5.1-10.3-.3-3.6.5-6.8,2.4-9.4,1.9-2.7,4.6-4.5,8.1-5.5l.4,5.2c-4.3,1.5-6.5,4.8-6.1,9.3.2,2.8,1.3,5.1,3.4,6.8,2,1.7,4.5,2.4,7.4,2.2,2.9-.2,5.3-1.4,7-3.4s2.5-4.4,2.2-7.2c-.4-4.5-3.1-7.4-7.6-8.2h.2ZM74.2,234.9l.8-5h0c-6.9-.4-10,5-10.9,10-.5,3.2,0,5.9,1.2,8.1,1.3,2.2,3.3,3.5,5.9,3.9,4.4.7,7.4-1.5,9.3-6.7l1.7-4.5c1-2.7,2.3-3.9,4.2-3.6,2.4.4,3.5,2.7,2.9,6.2-.7,4.2-3.2,6.7-6.6,6.6l-.8,5c3.1.3,5.7-.6,7.8-2.4,2.1-1.9,3.4-4.6,4-8.1.5-3.3.2-6.1-1.1-8.3-1.3-2.3-3.3-3.7-5.9-4.1-4.4-.7-7.1,1.8-9.2,7.2l-1.3,3.5c-1.1,3-2.4,4.3-4.5,4-2.5-.4-3.8-2.9-3.2-6.3.6-3.6,2.5-5.5,5.7-5.5h0ZM107.6,181.5c-.7,1.3-1.8,2.2-3.3,2.6-3,.8-5.9-.8-6.7-3.7-.4-1.5-.3-2.9.5-4.2.7-1.3,1.8-2.2,3.3-2.6,3-.9,5.9.7,6.7,3.7.4,1.5.3,2.9-.5,4.2ZM273.5,199.8v-.3h-5.2c.4,27.6-22.1,50.3-50.3,50.7v5c22.6-.3,41.8-13.7,50.5-32.7v136.2h4.9v-137.3c9,19.3,28.9,32.5,51.8,32.2v-5c-28.1.4-51.1-21.5-51.7-48.9h0Z"/>
  </g>
</svg>