<?xml version="1.0" encoding="UTF-8"?>
<svg id="Laag_1" data-name="Laag 1" xmlns="http://www.w3.org/2000/svg" version="1.1" viewBox="0 0 550 550">
  <defs>
    <style>
      .cls-1 {
        fill: #ee6350;
      }

      .cls-1, .cls-2 {
        stroke-width: 0px;
      }

      .cls-2 {
        fill: #fff;
        fill-rule: evenodd;
      }
    </style>
  </defs>
  <circle class="cls-1" cx="275" cy="275" r="251"/>
  <path class="cls-2" d="M499,275c0,123.7-100.3,224-224,224S51,398.7,51,275,151.3,51,275,51s224,100.3,224,224ZM504,275c0,126.5-102.5,229-229,229S46,401.5,46,275,148.5,46,275,46s229,102.5,229,229ZM288.4,249.9l-13.4-97.9-13.4,97.9c-.8,6.1-5.6,10.9-11.7,11.7l-97.9,13.4,97.9,13.4c6.1.8,10.9,5.6,11.7,11.7l13.4,97.9,13.4-97.9c.8-6.1,5.6-10.9,11.7-11.7l97.9-13.4-97.9-13.4c-6.1-.8-10.9-5.6-11.7-11.7h0Z"/>
</svg>